<?xml version="1.0" encoding="utf-8"?>
<!-- Generator: Adobe Illustrator 21.0.0, SVG Export Plug-In . SVG Version: 6.00 Build 0)  -->
<svg version="1.1" id="图层_1" xmlns="http://www.w3.org/2000/svg" xmlns:xlink="http://www.w3.org/1999/xlink" x="0px" y="0px"
	 viewBox="0 0 40 40" style="enable-background:new 0 0 40 40;" xml:space="preserve">
<style type="text/css">
	.st0{fill:#FFC600;}
	.st1{fill:none;}
	.st2{fill:#FFA300;}
</style>
<g>
	<path class="st0" d="M32.8,20.5L21.5,9.3c-0.5-0.5-1-0.8-1.8-0.8H11c-1.5,0-2.5,1-2.5,2.5v8.8c0,0.8,0.3,1.3,0.8,1.8l11.3,11.3
		c1,1,2.5,1,3.5,0l8.8-8.8C33.8,23,33.8,21.5,32.8,20.5z M16.2,16.2c-0.8,0.8-2.1,0.8-3,0c-0.8-0.8-0.8-2.1,0-3c0.8-0.8,2.1-0.8,3,0
		C17,14.1,17,15.4,16.2,16.2z"/>
	<path class="st1" d="M13.3,13.3c-0.8,0.8-0.8,2.1,0,3c0.8,0.8,2.1,0.8,3,0c0.8-0.8,0.8-2.2,0-3C15.4,12.5,14.1,12.5,13.3,13.3z"/>
	<path class="st1" d="M27.9,28.9C27.9,28.9,27.9,28.9,27.9,28.9L27.9,28.9C27.9,28.9,27.9,28.9,27.9,28.9z"/>
	<path class="st2" d="M27.9,28.9l4.9-4.9c1-1,1-2.5,0-3.5l-5.2-5.2c-1.2,1.9-1.8,4.1-1.8,6.5C25.7,24.4,26.5,26.8,27.9,28.9z"/>
	<path class="st2" d="M24,32.7l3.9-3.9c-0.5-0.1-0.9-0.1-1.4-0.1c-2.8,0-5.4,0.9-7.4,2.5l1.5,1.5C21.5,33.8,23,33.8,24,32.7z"/>
</g>
</svg>
