<?xml version="1.0" encoding="utf-8"?>
<!-- Generator: Adobe Illustrator 21.0.0, SVG Export Plug-In . SVG Version: 6.00 Build 0)  -->
<svg version="1.1" id="图层_1" xmlns="http://www.w3.org/2000/svg" xmlns:xlink="http://www.w3.org/1999/xlink" x="0px" y="0px"
	 viewBox="0 0 40 40" style="enable-background:new 0 0 40 40;" xml:space="preserve">
<style type="text/css">
	.st0{fill:#FFA200;}
	.st1{fill:#FFC600;}
	.st2{fill:#FFA300;}
</style>
<g>
	<path class="st0" d="M24.5,28.1c-1.6,0-2.8-1.3-2.8-2.8c0-0.1,0-0.2-0.1-0.3c0.6-0.3,1-1,1-1.7c0-1.1-0.9-1.9-1.9-1.9
		c-1.1,0-1.9,0.9-1.9,1.9c0,0.7,0.4,1.3,1,1.7c0,0.1-0.1,0.2-0.1,0.3c0,1.6-1.3,2.8-2.8,2.8c-0.5,0-0.9,0.4-0.9,0.9
		c0,0.5,0.4,0.9,0.9,0.9c1.6,0,3-0.9,3.8-2.2c0.8,1.3,2.2,2.2,3.8,2.2c0.5,0,0.9-0.4,0.9-0.9C25.4,28.4,25,28.1,24.5,28.1L24.5,28.1
		z"/>
	<path class="st0" d="M26.9,18c-0.9,0-1.6,0.7-1.6,1.6c0,0.9,0.7,1.6,1.6,1.6c0.9,0,1.6-0.7,1.6-1.6C28.5,18.7,27.8,18,26.9,18
		L26.9,18z"/>
	<path class="st1" d="M13.3,10.7"/>
	<path class="st1" d="M37.4,17.5l-4.5-6.4c-0.1-0.1-0.1-0.1-0.2-0.2c-0.7-1.3-2.2-2.1-4-2.1H11.9c-1.8,0-3.3,0.9-4,2.3
		c0,0-0.1,0.1-0.1,0.1l-4.5,6.4c-0.7,0.9-0.9,2.1-0.7,3.2c0.2,1.1,0.8,2.1,1.7,2.8C5,24,5.9,24.3,6.7,24.3c0.2,0,0.5,0,0.7-0.1v5.6
		c0,2.2,2,3.9,4.5,3.9h16.8c2.5,0,4.5-1.8,4.5-3.9v-5.7c0.3,0,0.5,0.1,0.8,0.1c0.9,0,1.7-0.3,2.5-0.8c0.9-0.7,1.5-1.6,1.7-2.8
		C38.3,19.6,38.1,18.4,37.4,17.5z M31.8,29.8c0,1.4-1.4,2.5-3,2.5H11.9c-1.7,0-3-1.1-3-2.5v-3.3C22,24.2,21.2,11.6,21.1,10.2h7.6
		c1.7,0,3,1.1,3,2.5L31.8,29.8L31.8,29.8z M14.9,19.6c0,0.9-0.7,1.6-1.6,1.6c-0.9,0-1.6-0.7-1.6-1.6c0-0.9,0.7-1.6,1.6-1.6
		C14.2,18,14.9,18.7,14.9,19.6z"/>
	<path class="st2" d="M5.1,22.3c-0.6-0.4-1-1.1-1.2-1.8c-0.1-0.7,0-1.5,0.5-2.1l3-4.3v8.7C6.7,22.9,5.8,22.8,5.1,22.3z"/>
	<path class="st2" d="M36.7,20.4c-0.1,0.7-0.5,1.4-1.2,1.8c-0.7,0.5-1.6,0.6-2.4,0.4V14l3.1,4.3C36.7,19,36.8,19.7,36.7,20.4z"/>
	<path class="st1" d="M33.4,10.6"/>
	<path class="st1" d="M30.8,10.6"/>
</g>
</svg>
