<?xml version="1.0" encoding="utf-8"?>
<!-- Generator: Adobe Illustrator 21.0.0, SVG Export Plug-In . SVG Version: 6.00 Build 0)  -->
<svg version="1.1" id="图层_1" xmlns="http://www.w3.org/2000/svg" xmlns:xlink="http://www.w3.org/1999/xlink" x="0px" y="0px"
	 viewBox="0 0 40 40" style="enable-background:new 0 0 40 40;" xml:space="preserve">
<style type="text/css">
	.st0{fill:#FFA300;}
	.st1{fill:#FFCC30;}
</style>
<g>
	<path class="st0" d="M29,16.5L29,16.5c-0.3-4.5-4.2-8-9-8c-4.7,0-8.6,3.5-9,8c-1.7,0.3-3,1.8-3,3.5v1.4c0,2,1.7,3.6,3.8,3.6H14
		v-8.7h-1.5c0.4-3.7,3.6-6.5,7.5-6.5c3.9,0,7.1,2.9,7.5,6.5H26v8.7h1.5c-0.7,3-3.4,5.2-6.7,5.2c-0.5,0-1-0.1-1.5-0.2v1.4
		c0.5,0.1,1,0.1,1.5,0.1c4.1,0,7.4-2.8,8.1-6.6c0,0,0,0,0,0c1.8-0.3,3.1-1.8,3.1-3.6V20C32,18.2,30.7,16.8,29,16.5z"/>
	<path class="st1" d="M20,8.4c-4.7,0-8.6,3.5-9,7.9h1.5c0.4-3.6,3.6-6.5,7.5-6.5c3.9,0,7.1,2.8,7.5,6.5H29
		C28.6,11.9,24.7,8.4,20,8.4z"/>
	<path class="st0" d="M20.8,30.2c-0.5,0-1-0.1-1.5-0.2v1.4c0.5,0.1,1,0.1,1.5,0.1c3.6,0,6.7-2.3,7.8-5.5h-1.5
		C26.1,28.5,23.6,30.2,20.8,30.2z"/>
	<path class="st0" d="M29,23.6c0,0.5,0,0.9-0.1,1.4c0,0,0,0,0,0C29,24.6,29,24.1,29,23.6L29,23.6z"/>
	<path class="st0" d="M20.8,30.2c-0.5,0-1-0.1-1.5-0.2v1.4c0.5,0.1,1,0.1,1.5,0.1c3.2,0,6-1.8,7.3-4.3l-2,0.5
		C24.9,29.3,22.9,30.2,20.8,30.2z"/>
	<path class="st1" d="M9,17.5C8.4,18.2,8,19,8,20v1.4c0,2,1.7,3.6,3.8,3.6H14v-2.9C10.8,21.5,9.5,18.9,9,17.5z"/>
	<path class="st1" d="M28.9,25c1.8-0.3,3.1-1.8,3.1-3.6V20c0-0.9-0.3-1.7-0.9-2.3c-0.5,1.5-1.9,4-5.1,4.5v2.9h1.5
		c-0.2,1-0.7,1.9-1.3,2.7l2-0.5C28.5,26.6,28.7,25.8,28.9,25C28.9,25,28.9,25,28.9,25z"/>
</g>
</svg>
