<?xml version="1.0" encoding="utf-8"?>
<!-- Generator: Adobe Illustrator 21.0.0, SVG Export Plug-In . SVG Version: 6.00 Build 0)  -->
<svg version="1.1" id="图层_1" xmlns="http://www.w3.org/2000/svg" xmlns:xlink="http://www.w3.org/1999/xlink" x="0px" y="0px"
	 viewBox="0 0 40 40" style="enable-background:new 0 0 40 40;" xml:space="preserve">
<style type="text/css">
	.st0{fill:#FFCC30;}
	.st1{fill:#FFA300;}
	.st2{fill:#FFFFFF;stroke:#FFA300;stroke-width:0.5;stroke-miterlimit:10;}
</style>
<g>
	<path class="st0" d="M26,32H14c-3.3,0-6-2.7-6-6V14c0-3.3,2.7-6,6-6h12c3.3,0,6,2.7,6,6v12C32,29.3,29.3,32,26,32z"/>
	<path class="st1" d="M19.2,11.1V8H14c-3.3,0-6,2.7-6,6v3h5.3C16.5,17,19.2,14.4,19.2,11.1z"/>
	<path class="st1" d="M32,26v-3h-2.8c-3.3,0-6,2.7-6,6v3H26C29.3,32,32,29.3,32,26z"/>
</g>
<g>
	<path class="st2" d="M24.2,13.4c-0.5-0.3-1.1-0.1-1.4,0.4c-0.3,0.5-0.1,1.1,0.4,1.4c1.9,1.1,3,3.1,3,5.3c0,3.4-2.8,6.2-6.2,6.2
		s-6.2-2.8-6.2-6.2c0-2.2,1.2-4.2,3-5.3c0.5-0.3,0.6-0.9,0.4-1.4c-0.3-0.5-0.9-0.6-1.4-0.4c-2.5,1.5-4,4.2-4,7.1
		c0,4.5,3.7,8.2,8.2,8.2s8.2-3.7,8.2-8.2C28.2,17.6,26.7,14.9,24.2,13.4z"/>
	<path class="st2" d="M20,21.1c0.6,0,1-0.5,1-1v-7.7c0-0.6-0.5-1-1-1s-1,0.5-1,1v7.7C19,20.6,19.4,21.1,20,21.1z"/>
</g>
</svg>
