<?xml version="1.0" encoding="utf-8"?>
<!-- Generator: Adobe Illustrator 21.0.0, SVG Export Plug-In . SVG Version: 6.00 Build 0)  -->
<svg version="1.1" id="图层_1" xmlns="http://www.w3.org/2000/svg" xmlns:xlink="http://www.w3.org/1999/xlink" x="0px" y="0px"
	 viewBox="0 0 60 60" style="enable-background:new 0 0 60 60;" xml:space="preserve">
<style type="text/css">
	.st0{fill:#FFCC30;stroke:#FFA829;stroke-miterlimit:10;}
	.st1{fill:#FFFFFF;stroke:#FFA829;stroke-miterlimit:10;}
</style>
<g>
	<circle class="st0" cx="29.9" cy="30.5" r="27"/>
	<polygon class="st1" points="29.9,30.5 29.9,30.5 29.9,30.5 	"/>
	<g>
		<path class="st1" d="M18.8,27.6c0-3.6-2.2-6.4-4.9-6.4s-4.9,2.8-4.9,6.4s2.2,6.5,4.9,6.5S18.8,31.2,18.8,27.6z"/>
		<path class="st1" d="M23.8,25.5c2.8,0,4.9-2.8,4.9-6.4c0-3.6-2.2-6.4-4.9-6.4c-2.8,0-4.9,2.8-4.9,6.4C18.8,22.6,21,25.5,23.8,25.5
			z"/>
		<path class="st1" d="M36.1,25.5c2.8,0,4.9-2.8,4.9-6.4c0-3.6-2.2-6.4-4.9-6.4c-2.8,0-4.9,2.8-4.9,6.4
			C31.2,22.6,33.3,25.5,36.1,25.5z"/>
		<path class="st1" d="M46,21.1c-2.8,0-4.9,2.8-4.9,6.5c0,3.6,2.2,6.4,4.9,6.4s4.9-2.8,4.9-6.5S48.8,21.1,46,21.1z"/>
		<path class="st1" d="M29.9,26.8c-5.1,0-9.6,3.8-12.3,10.4c-1.5,3.7-1.5,7,0.1,9.3c0.9,1.3,2.2,2,3.6,2c2.1,0,3.6-0.7,4.9-1.3
			c1.2-0.6,2.2-1.1,3.8-1.1c1.6,0,2.6,0.5,3.8,1.1c1.3,0.6,2.7,1.3,4.9,1.3c1.4,0,2.7-0.7,3.5-2c1.5-2.2,1.6-5.6,0.1-9.3
			C39.5,30.6,35,26.8,29.9,26.8z"/>
	</g>
</g>
</svg>
