<?xml version="1.0" encoding="utf-8"?>
<!-- Generator: Adobe Illustrator 21.0.0, SVG Export Plug-In . SVG Version: 6.00 Build 0)  -->
<svg version="1.1" id="图层_1" xmlns="http://www.w3.org/2000/svg" xmlns:xlink="http://www.w3.org/1999/xlink" x="0px" y="0px"
	 viewBox="0 0 60 60" style="enable-background:new 0 0 60 60;" xml:space="preserve">
<style type="text/css">
	.st0{fill:#E689FB;stroke:#D65AF6;stroke-miterlimit:10;}
	.st1{fill:#FFFFFF;stroke:#D65AF6;stroke-miterlimit:10;}
	.st2{fill:#E48BFB;}
</style>
<g>
	<circle class="st0" cx="30" cy="30" r="27"/>
	<g>
		<path class="st1" d="M19.4,12.8h21.1c2.2,0,4,1.9,4.1,4.3l1.5,25.3c0.2,2.5-1.6,4.7-3.8,4.9c-0.1,0-0.2,0-0.3,0H17.9
			c-2.3,0-4.1-2.1-4.1-4.6c0-0.1,0-0.2,0-0.3L15.3,17C15.5,14.6,17.3,12.8,19.4,12.8z"/>
		<path class="st2" d="M38.1,20.8c0.3-0.8-0.1-1.7-0.9-2c-0.8-0.3-1.7,0.1-2,0.9c-0.1,0.3-0.1,0.7,0,1h-0.1c0,2.8-2.3,5.1-5.1,5.1
			c-2.8,0-5.1-2.3-5.1-5.1v0h-0.1c0.3-0.8-0.1-1.7-0.9-2s-1.7,0.1-2,0.9c-0.1,0.3-0.1,0.7,0,1h-0.1c0,4.5,3.7,8.2,8.2,8.2
			S38.2,25.4,38.1,20.8L38.1,20.8L38.1,20.8z"/>
	</g>
</g>
</svg>
