<?xml version="1.0" encoding="utf-8"?>
<!-- Generator: Adobe Illustrator 21.0.0, SVG Export Plug-In . SVG Version: 6.00 Build 0)  -->
<svg version="1.1" id="图层_1" xmlns="http://www.w3.org/2000/svg" xmlns:xlink="http://www.w3.org/1999/xlink" x="0px" y="0px"
	 viewBox="0 0 60 60" style="enable-background:new 0 0 60 60;" xml:space="preserve">
<style type="text/css">
	.st0{fill:#4CE1AC;stroke:#04BC75;stroke-miterlimit:10;}
	.st1{fill:#FFFFFF;stroke:#04BC75;stroke-miterlimit:10;}
</style>
<g>
	<circle class="st0" cx="30" cy="30" r="27"/>
	<g>
		<path class="st1" d="M25.1,14.7c0-1.2,1.1-2.2,2.4-2.2h4.9c1.3,0,2.4,1,2.4,2.2v30.6c0,1.2-1.1,2.2-2.4,2.2h-4.9
			c-1.3,0-2.4-1-2.4-2.2V14.7z"/>
		<path class="st1" d="M36.4,32.2c0-1.2,1.1-2.2,2.4-2.2h4.9c1.3,0,2.4,1,2.4,2.2v13.1c0,1.2-1.1,2.2-2.4,2.2h-4.9
			c-1.3,0-2.4-1-2.4-2.2V32.2z"/>
		<path class="st1" d="M13.8,23.4c0-1.2,1.1-2.2,2.4-2.2h4.9c1.3,0,2.4,1,2.4,2.2v21.9c0,1.2-1.1,2.2-2.4,2.2h-4.9
			c-1.3,0-2.4-1-2.4-2.2V23.4z"/>
	</g>
</g>
</svg>
