<?xml version="1.0" encoding="utf-8"?>
<!-- Generator: Adobe Illustrator 21.0.0, SVG Export Plug-In . SVG Version: 6.00 Build 0)  -->
<svg version="1.1" id="图层_1" xmlns="http://www.w3.org/2000/svg" xmlns:xlink="http://www.w3.org/1999/xlink" x="0px" y="0px"
	 viewBox="0 0 60 60" style="enable-background:new 0 0 60 60;" xml:space="preserve">
<style type="text/css">
	.st0{fill:#FE9340;stroke:#FC4D00;stroke-miterlimit:10;}
	.st1{fill:#FFFFFF;stroke:#FC4D00;stroke-miterlimit:10;}
	.st2{fill:#FE9340;}
</style>
<g>
	<circle class="st0" cx="30" cy="30" r="27"/>
	<path class="st1" d="M41,47H19c-3.3,0-6-2.7-6-6V19c0-3.3,2.7-6,6-6h22c3.3,0,6,2.7,6,6v22C47,44.3,44.3,47,41,47z"/>
	<path class="st2" d="M27.3,38.4c-0.3,0-0.6-0.1-0.8-0.4l-7.3-8.1c-0.5-0.5-0.5-1.3,0-1.8c0.4-0.5,1.1-0.5,1.5-0.1
		c0,0,0.1,0.1,0.1,0.1l6.5,7.2l12-13.3c0.4-0.5,1.1-0.5,1.5-0.1c0,0,0.1,0.1,0.1,0.1c0.5,0.5,0.5,1.3,0,1.8l-8.5,9.4L28.1,38
		C27.9,38.3,27.6,38.4,27.3,38.4L27.3,38.4z"/>
</g>
</svg>
