<?xml version="1.0" encoding="utf-8"?>
<!-- Generator: Adobe Illustrator 21.0.0, SVG Export Plug-In . SVG Version: 6.00 Build 0)  -->
<svg version="1.1" id="图层_1" xmlns="http://www.w3.org/2000/svg" xmlns:xlink="http://www.w3.org/1999/xlink" x="0px" y="0px"
	 viewBox="0 0 200 114" style="enable-background:new 0 0 200 114;" xml:space="preserve">
<style type="text/css">
	.st0{fill:#F2F4F4;}
	.st1{fill:#CFCECE;}
</style>
<g>
	<path class="st0" d="M190.4,113.6H9.6c-5.3,0-9.6-4.3-9.6-9.6V10c0-5.3,4.3-9.6,9.6-9.6h180.8c5.3,0,9.6,4.3,9.6,9.6v94
		C200,109.3,195.7,113.6,190.4,113.6z"/>
	<g>
		<path class="st1" d="M19.2,18.7v5.9h-5.8v-4.7c0-2.9,0.5-5,1.6-6.4c0.8-1.1,1.9-1.9,3.4-2.6l1.3,1.9c-2.1,0.8-3.2,2.7-3.3,5.5v0.2
			H19.2z M28.6,18.7v5.9h-5.8v-4.7c0-2.9,0.5-5,1.5-6.4c0.8-1.1,2-1.9,3.5-2.6l1.3,1.9c-2.1,0.8-3.2,2.7-3.3,5.5v0.2H28.6z"/>
	</g>
	<g>
		<path d="M12.1,40.5h5.1c0-0.3,0-0.8,0.1-1.4v-1.2H19v1.2c0,0.6-0.1,1.1-0.1,1.4h5.3c-1-0.7-2-1.2-3-1.6l0.9-1.3
			c1.2,0.5,2.3,1.1,3.4,1.8l-0.7,1.1h3.3v1.7h-5.8v3.9c1.4-1,2.5-2.1,3.4-3.4l1.3,1c-1.2,1.8-2.8,3.3-4.7,4.5v0.2
			c0,0.5,0.3,0.7,0.8,0.7h3c0.3,0,0.5-0.1,0.6-0.3c0.1-0.2,0.2-0.9,0.3-2.1l1.6,0.5c-0.1,1.7-0.4,2.8-0.7,3.1
			c-0.4,0.3-0.8,0.5-1.5,0.5h-3.9c-1.2,0-1.9-0.5-2-1.6c-0.9,0.4-2,0.9-3.2,1.3l-0.7-1.6c1.4-0.5,2.7-1,3.9-1.6v-5h-1.8
			c-0.3,1.8-0.7,3.4-1.4,4.8c-1,1.8-2.6,3.2-4.9,4.2l-1-1.5c2.2-1.1,3.7-2.4,4.5-4c0.5-1,0.8-2.2,1-3.5h-4.9V40.5z M27.9,35.3v3.8
			h-1.8V37H14v2.1h-1.8v-3.8H19c-0.2-0.4-0.4-0.9-0.8-1.3l1.9-0.3c0.2,0.5,0.5,1.1,0.7,1.6H27.9z"/>
		<path d="M34,39.3c-0.1,0.8-0.3,1.6-0.6,2.6l-1.6-0.4c0.6-2,0.9-4.1,1-6.2l1.6,0.1c0,0.8-0.1,1.5-0.2,2.2h1v-3.8H37v3.8h1.4v1.7H37
			v4l1.3-0.6v1.7c-0.6,0.3-1,0.5-1.3,0.6v6.2h-1.7v-5.5c-0.8,0.3-1.7,0.6-2.7,0.9l-0.4-1.7c1.1-0.2,2.2-0.5,3.1-0.9v-4.6H34z
			 M42.2,34.2c-0.2,0.9-0.4,1.7-0.6,2.5h7.1c0,6.4-0.1,10.4-0.3,11.9c-0.2,1.6-1.3,2.4-3.2,2.4l-1.4-0.1l-0.4-1.6
			c0.7,0.1,1.2,0.1,1.6,0.1c1,0,1.6-0.5,1.8-1.6c0.1-0.9,0.2-4.1,0.2-9.4h-0.8c-0.4,3.1-1,5.5-1.7,7.2c-0.9,2-2.1,3.7-3.8,5.3
			l-1.1-1.4c1.5-1.4,2.7-2.9,3.5-4.7c0.7-1.7,1.2-3.8,1.5-6.5h-1.1c-0.8,4-2.2,7-4.2,8.8l-1.1-1.3c1.8-1.6,3.1-4.1,3.8-7.4h-0.9
			c-0.5,1.2-1,2.1-1.6,2.8L38,40.1c1.2-1.5,2-3.6,2.5-6.4L42.2,34.2z"/>
		<path d="M54.7,41.6c-0.5,0.7-1.1,1.4-1.6,2l-0.5-1.8c1.9-2.3,3.2-5,4.1-8.1l1.6,0.8c-0.4,1.5-1,2.9-1.8,4.3v12.3h-1.7V41.6z
			 M57.8,36.8h4.7v-3h1.7v3h5v1.7h-3.7c0.9,3,2.3,5.6,4.4,7.8l-1.1,1.4c-2.2-2.7-3.7-5.8-4.6-9.2v7.1h2.7v1.7h-2.7v3.7h-1.7v-3.7
			h-2.6v-1.7h2.6v-7.2c-0.9,3.9-2.5,7-4.7,9.5l-0.9-1.5c2-2.1,3.5-4.8,4.4-8h-3.5V36.8z"/>
		<path d="M73.6,37.3h2.2v-3.5h1.7v3.5h1.8V39h-1.8v0.8c0.8,0.8,1.5,1.6,2.3,2.5l-1,1.5c-0.5-0.9-0.9-1.7-1.2-2.3V51h-1.7v-8.3
			c-0.5,1.5-1.2,2.9-1.9,4.3l-0.8-2c1.2-1.7,2.1-3.7,2.6-5.9h-2.2V37.3z M82,39.7c-0.7,0.7-1.3,1.2-2,1.7l-1-1.5
			c2.2-1.5,3.8-3.6,5-6.1h1.7c1,2.3,2.7,4.3,5.1,6l-1,1.5c-0.7-0.5-1.4-1.1-2-1.6v1H82V39.7z M79.4,48.8h6.4
			c0.7-1.9,1.3-4.3,1.9-7.2l1.7,0.4c-0.5,2.4-1.1,4.7-1.8,6.8h2.7v1.7H79.4V48.8z M81.8,42.2c0.5,1.7,1,3.5,1.3,5.5L81.6,48
			c-0.4-1.9-0.8-3.6-1.3-5.3L81.8,42.2z M87.1,39.1c-0.9-1-1.7-2.2-2.3-3.5c-0.7,1.3-1.4,2.5-2.3,3.5H87.1z M84.6,41.5
			c0.5,1.5,0.9,3.2,1.3,5.2l-1.6,0.4c-0.3-1.8-0.7-3.5-1.2-5.2L84.6,41.5z"/>
	</g>
	<g>
		<path class="st1" d="M11.5,64.5c-0.3,0-0.6,0-0.9,0.1c0-0.3,0-0.7,0-1c0.3,0.1,0.6,0.1,0.9,0.1h3l0.4-1.4h-2c-0.3,0-0.6,0-0.9,0.1
			c0-0.3,0-0.7,0-1c0.3,0.1,0.6,0.1,0.9,0.1h2.2l0.3-1.1c0.1-0.3,0.1-0.7,0.2-1c0.4,0.1,0.7,0.2,1.1,0.3c-0.1,0.3-0.3,0.6-0.4,0.9
			l-0.2,0.9H18c0.8,0,1.7,0,2.5-0.1c0,0.3,0,0.7,0,1c-0.8-0.1-1.7-0.1-2.5-0.1h-2l-0.4,1.4h3c1.1,0,2.3,0,3.4-0.1c0,0.3,0,0.7,0,1
			c-1.1-0.1-2.3-0.1-3.4-0.1h-3.2L15,65.5H20v0.8c-0.2,0.2-0.5,0.3-0.7,0.5L17.1,69l1.8,1.1l-0.7,0.7l-2.1-1.3L14,68.2l0.6-0.8
			l1.7,1l2.1-2.1h-4.6l0.5-1.9H11.5z"/>
		<path class="st1" d="M33.5,69.1c0,0.3,0,0.6,0,0.9C32.3,70,31.2,70,30.1,70H23c-0.3,0-0.5,0-0.8,0.1c0-0.3,0-0.6,0-0.9
			c0.3,0.1,0.5,0.1,0.8,0.1h3.3v-8.8c0-0.3,0-0.7-0.1-1c0.4,0,0.8,0,1.2,0c-0.1,0.3-0.1,0.7-0.1,1v8.8h1.8v-8.8c0-0.3,0-0.7-0.1-1
			c0.4,0,0.8,0,1.2,0c-0.1,0.3-0.1,0.7-0.1,1v5.8c1.1-1.3,1.7-2.7,1.9-4.2c0.4,0.2,0.8,0.3,1.2,0.3c-0.6,1.5-1.1,2.6-1.5,3.3
			c-0.4,0.8-0.9,1.4-1.3,1.9c-0.1-0.1-0.2-0.2-0.3-0.3v1.9C31.2,69.2,32.3,69.2,33.5,69.1z M24.5,66.7c-0.6-1.5-1.3-3-2.1-4.5l1-0.3
			c0.8,1.5,1.5,3,2.1,4.5L24.5,66.7z"/>
		<path class="st1" d="M34.6,60h9.5l0,10.1h-9.5V60z M35.5,60.8v8.4h7.6l0-8.4H35.5z M38.5,68.1c0.6,0.1,1,0.1,1.4,0
			c0.1,0,0.2-0.1,0.2-0.2v-3.3c-1.2,1.4-2.5,2.5-3.8,3c-0.1-0.4-0.3-0.7-0.6-1c0.9-0.3,1.6-0.7,2.3-1.3c0.7-0.6,1.2-1.2,1.6-2h-3
			c-0.3,0-0.6,0-0.9,0.1c0-0.3,0-0.7,0-1c0.3,0.1,0.6,0.1,0.9,0.1h3.4c0-0.5,0-1-0.1-1.4c0.4,0,0.8,0,1.2,0C41,61.6,41,62.1,41,62.6
			c0.6,0,1.2,0,1.8-0.1c0,0.3,0,0.7,0,1c-0.6,0-1.2-0.1-1.8-0.1v4.4c0,0.8-0.3,1.3-0.9,1.4c-0.4,0.1-0.9,0.1-1.2,0h-0.3
			C38.6,68.8,38.6,68.5,38.5,68.1z"/>
		<path class="st1" d="M48.2,68.9c-0.2-0.3-0.4-0.6-0.6-0.9l0.7-0.2c0.4-0.2,0.6-0.5,0.6-0.9c0-0.7-0.1-1.3-0.4-2
			c-0.3-0.6-0.7-1.2-1.2-1.7l1.4-2.2h-1.6v6.7c0,1,0,2.1,0.1,3.1c-0.5,0-0.9,0-1.4,0c0.1-1,0.1-2.1,0.1-3.1V60h4.3v0.9
			c-0.2,0.1-0.3,0.2-0.4,0.3l-1.2,1.9c0.5,0.5,0.9,1.1,1.1,1.7c0.3,0.6,0.4,1.3,0.4,1.9c0,0.4-0.1,0.8-0.3,1.1
			c-0.3,0.4-0.6,0.7-1.1,0.8L48.2,68.9z M51.6,62.9v-2.3c0-0.4,0-0.7-0.1-1c0.4,0,0.8,0,1.2,0c-0.1,0.3-0.1,0.7-0.1,1v2.6
			c0.4,2.4,1.7,4.7,4.1,6.7c-0.5,0.1-0.9,0.3-1.2,0.7c-1.5-1.4-2.6-3-3.3-5c-0.3,1.2-0.8,2.2-1.4,3.1s-1.5,1.6-2.4,2.2
			c-0.2-0.4-0.4-0.7-0.7-1c1.3-0.6,2.3-1.6,3-3C51.3,65.8,51.6,64.4,51.6,62.9z"/>
		<path class="st1" d="M60.3,59.8c-0.3,1.3-0.7,2.5-1.1,3.6v5c0,0.7,0,1.5,0.1,2.2c-0.3,0-0.7,0-1,0c0.1-0.7,0.1-1.5,0.1-2.2v-3.3
			c-0.3,0.5-0.6,0.9-0.9,1.3c-0.2-0.3-0.5-0.5-0.8-0.7c1-1,1.7-2.3,2.2-3.7c0.2-0.8,0.4-1.6,0.4-2.4C59.5,59.7,59.9,59.8,60.3,59.8z
			 M65.3,70.6c-0.4,0-0.8-0.1-1-0.4c-0.3-0.3-0.4-0.6-0.4-1.1v-5.8h-0.1c-0.1,2.4-0.7,4.3-1.8,5.7c-0.5,0.7-1.1,1.3-1.7,1.7
			c-0.2-0.3-0.4-0.6-0.8-0.9c2.1-1.3,3.2-3.5,3.3-6.6h-1.6c-0.3,0-0.6,0-0.9,0.1c0-0.3,0-0.7,0-1c0.3,0.1,0.6,0.1,0.9,0.1h1.6v-1.8
			c0-0.3,0-0.7-0.1-1c0.4,0,0.8,0,1.2,0c-0.1,0.3-0.1,0.7-0.1,1v1.8h1.3c0.7,0,1.4,0,2-0.1c0,0.3,0,0.7,0,1c-0.7-0.1-1.4-0.1-2-0.1
			h-0.3v5.8c0,0.2,0,0.3,0.1,0.4c0.1,0.1,0.2,0.2,0.3,0.2h1.6c0.1,0,0.2-0.1,0.2-0.2l0.3-2.1c0.3,0.2,0.6,0.3,0.9,0.3l-0.5,2.5
			c0,0.1-0.1,0.2-0.2,0.3c0,0-0.1,0-0.2,0H65.3z M65.6,62c-0.4-0.5-0.9-0.9-1.5-1.3l0.7-0.7c0.6,0.4,1.1,0.9,1.6,1.5L65.6,62z"/>
		<path class="st1" d="M79.5,67.2c0,0.3,0,0.6,0,0.9c-1.1-0.1-2.3-0.1-3.4-0.1h-1.5v1.3c0,0.7-0.3,1.1-0.9,1.2c-0.3,0-0.6,0.1-0.9,0
			c-0.3,0-0.5,0-0.6,0h-0.3c0-0.4,0-0.7-0.1-1.1l1.2,0.1l0.2,0c0.3,0.1,0.4,0,0.4-0.2v-1.3H69c-0.3,0-0.5,0-0.8,0.1
			c0-0.3,0-0.6,0-0.9c0.3,0.1,0.5,0.1,0.8,0.1h4.6v-0.8L75,66h-4.5c-0.3,0-0.6,0-0.8,0.1c0-0.3,0-0.6,0-0.9c0.3,0.1,0.5,0.1,0.8,0.1
			h7.3l0.1,0.9c-0.3,0-0.7,0.1-1,0.2l-2.4,0.9v0.2h1.5C77.3,67.3,78.4,67.3,79.5,67.2z M79.2,60.7c0,0.3,0,0.6,0,0.9
			c-1.1-0.1-2.1-0.1-3.2-0.1h-6.5c-0.3,0-0.6,0-0.8,0.1c0-0.3,0-0.6,0-0.9c0.3,0.1,0.5,0.1,0.8,0.1h3.8c-0.3-0.3-0.6-0.6-0.9-0.9
			l0.8-0.6c0.5,0.5,1,1,1.4,1.5H76C77.1,60.8,78.2,60.8,79.2,60.7z M70.5,62h6.8l0,2.6h-6.8V62z M71.5,62.8v1h4.9v-1H71.5z"/>
		<path class="st1" d="M80.7,70.8c-0.2-0.3-0.5-0.6-0.9-0.8c0.7-0.4,1.1-0.9,1.2-1.7c0.1-0.3,0.1-0.7,0.1-1.2v-7h3.7v9.1
			c0,0.4-0.1,0.7-0.2,0.9c-0.3,0.4-1,0.6-1.9,0.6c0-0.4,0-0.8-0.1-1.2c0.4,0.1,0.6,0.1,0.7,0.1c0.1,0,0.2,0,0.2-0.1
			c0.1,0,0.1-0.1,0.1-0.2v-3.2h-1.5v0.9C82.2,68.8,81.7,70,80.7,70.8z M83.8,62.6V61h-1.5v1.6H83.8z M83.8,65.4v-1.9h-1.5v1.9H83.8z
			 M90.1,62.3c0,0.8-0.5,1.2-1.6,1.2h-0.7c0-0.4,0-0.8-0.1-1.2c0.4,0.1,0.6,0.1,0.7,0.1c0.1,0,0.1,0,0.2,0l0.3,0.1
			c0.1,0,0.1,0,0.1-0.1v-1.4h-2.5v3.2h3.5c0,1.4-0.3,2.8-1,4c0.6,0.6,1.3,1,2.1,1.3c-0.4,0.2-0.7,0.5-0.8,1
			c-0.7-0.3-1.4-0.8-1.9-1.3c-0.4,0.5-0.8,0.9-1.3,1.2c-0.2-0.2-0.3-0.3-0.5-0.4c0,0.2,0,0.5,0,0.7c-0.4,0-0.8,0-1.2,0
			c0.1-1,0.1-2,0.1-3.1v-7.5h4.5V62.3z M87.7,68.3c-0.6-0.9-1-2-1.1-3.3h-0.1v2.6c0,0.5,0,1,0,1.6C87,68.9,87.4,68.6,87.7,68.3z
			 M87.5,65c0,0.9,0.3,1.7,0.9,2.5c0.4-0.8,0.7-1.6,0.7-2.5H87.5z"/>
		<path class="st1" d="M94.1,66.8c-0.3,0-0.5,0-0.8,0.1c0-0.3,0-0.6,0-0.9c-0.4,0.1-0.9,0.2-1.3,0.3c-0.2-0.5-0.4-0.9-0.7-1.3
			c0.9,0,1.8-0.1,2.6-0.3s1.7-0.6,2.4-1.1c-0.4-0.4-0.9-0.9-1.3-1.3c-0.7,0.8-1.5,1.4-2.5,1.8c-0.1-0.3-0.3-0.6-0.5-0.9
			c0.8-0.3,1.5-0.7,2.1-1.4c0.6-0.6,1-1.4,1.3-2.2c0.3,0.2,0.7,0.3,1.1,0.4c-0.1,0.2-0.2,0.4-0.3,0.7h4.1c-0.6,1.1-1.4,2-2.3,2.9
			c1.4,0.9,3,1.4,4.7,1.6c-0.3,0.3-0.5,0.7-0.6,1.1c-1.9-0.3-3.5-1-5-2.1c-0.3,0.2-0.6,0.4-1,0.6c0.4,0,0.8,0,1.2,0
			c0,0.4-0.1,0.8-0.2,1.2h2.4v3.3c0,0.3-0.1,0.6-0.2,0.7c-0.1,0.2-0.2,0.3-0.4,0.3c-0.1,0.1-0.3,0.1-0.4,0.1c-0.2,0-0.3,0-0.4,0
			l-1.2,0c0-0.4,0-0.7-0.1-1.1l1.1,0.1c0.1,0,0.2,0,0.3,0.1c0.1,0,0.2,0,0.2,0c0,0,0-0.1,0-0.1v-2.6h-1.7c-0.6,1.4-1.4,2.4-2.5,3.2
			c-0.6,0.4-1.2,0.7-1.9,0.8c-0.1-0.4-0.2-0.7-0.4-1.1c1.3-0.3,2.3-0.9,3-1.8c0.3-0.4,0.5-0.8,0.6-1.2H94.1z M94.1,66h1.8
			c0.1-0.4,0.1-0.8,0.1-1.2c-0.8,0.5-1.7,0.9-2.6,1.1C93.6,66,93.9,66,94.1,66z M97,62.9c0.5-0.5,1-1,1.3-1.5h-2.7l-0.1,0.1
			C95.9,62,96.4,62.5,97,62.9z"/>
	</g>
</g>
</svg>
