<?xml version="1.0" encoding="utf-8"?>
<!-- Generator: Adobe Illustrator 21.0.0, SVG Export Plug-In . SVG Version: 6.00 Build 0)  -->
<svg version="1.1" id="图层_1" xmlns="http://www.w3.org/2000/svg" xmlns:xlink="http://www.w3.org/1999/xlink" x="0px" y="0px"
	 viewBox="0 0 100 100" style="enable-background:new 0 0 100 100;" xml:space="preserve">
<style type="text/css">
	.st0{fill:#F8D243;}
	.st1{opacity:0.75;}
	.st2{fill:#FAB94D;}
	.st3{fill:#FFFFFF;}
	.st4{fill:#F6DB40;}
	.st5{fill:#F8D045;}
</style>
<g>
	<path class="st0" d="M0,50C0,22.4,22.4,0,50,0s50,22.4,50,50s-22.4,50-50,50S0,77.6,0,50"/>
	<g class="st1">
		<path class="st2" d="M91.2,61.8L70.2,42c2-4.6,1.2-10.7-2.5-15.5C62.6,19.9,54,18,48.3,22.3c-4.8-4-11.7-4.6-17.1-1.1
			c-4.1,2.6-6.4,7-6.6,11.6c-3.1,0-6.2,0.9-8.8,2.9c-6.2,4.8-7.2,13.8-2.3,20.1c0.2,0.2,0.4,0.4,0.6,0.7c-4.5,5.6-3,14.5,3.6,19.8
			c4.5,3.7,10.1,4.7,14.7,3.2l20.3,19.1C71.2,93.9,87.4,80.6,91.2,61.8z"/>
		<ellipse transform="matrix(0.9908 -0.1353 0.1353 0.9908 -4.3835 7.7852)" class="st2" cx="55.1" cy="36.1" rx="6.2" ry="8.8"/>
		<ellipse transform="matrix(0.9206 -0.3906 0.3906 0.9206 -10.5186 18.137)" class="st2" cx="39.3" cy="34.9" rx="6.2" ry="8.8"/>
		<ellipse transform="matrix(0.5 -0.866 0.866 0.5 -27.6065 47.2239)" class="st2" cx="27.1" cy="47.5" rx="6.2" ry="8.8"/>
		<ellipse class="st2" cx="27.5" cy="63.8" rx="8.8" ry="6.2"/>
		<path class="st2" d="M59.5,68.1l-7.1,7.2c-4.3,4.4-11.8,1.8-12.5-4.3l-0.6-5.1l-0.6-4.9c-0.9-7.8,5.7-14.5,13.5-13.7l4.9,0.5
			l5.1,0.5c6.1,0.6,8.8,8.1,4.5,12.5L59.5,68.1z"/>
	</g>
	<g>
		<g>
			<path class="st3" d="M99.1,60L78.1,40.2c2-4.6,1.2-10.7-2.5-15.5c-5.1-6.6-13.7-8.4-19.4-4.2c-4.8-4-11.7-4.6-17.1-1.1
				c-4.1,2.6-6.4,7-6.6,11.6c-3.1,0-6.2,0.9-8.8,2.9c-6.2,4.8-7.2,13.8-2.3,20.1c0.2,0.2,0.4,0.4,0.6,0.7c-4.5,5.6-3,14.5,3.6,19.8
				c4.5,3.7,10.1,4.7,14.7,3.2l22.1,20.8C80.8,93.9,95.3,78.9,99.1,60z"/>
		</g>
		<g>
			<ellipse transform="matrix(0.9908 -0.1353 0.1353 0.9908 -4.0734 8.8375)" class="st4" cx="63" cy="34.4" rx="6.2" ry="8.8"/>
		</g>
		<g>
			<ellipse transform="matrix(0.9206 -0.3906 0.3906 0.9206 -9.2063 21.0811)" class="st4" cx="47.2" cy="33.2" rx="6.2" ry="8.8"/>
		</g>
		<g>
			<ellipse transform="matrix(0.5 -0.866 0.866 0.5 -22.1398 53.1837)" class="st4" cx="35" cy="45.8" rx="6.2" ry="8.8"/>
		</g>
		<g>
			<ellipse class="st4" cx="35.3" cy="62" rx="8.8" ry="6.2"/>
		</g>
		<g>
			<path class="st5" d="M67.4,66.3l-7.1,7.2c-4.3,4.4-11.8,1.8-12.5-4.3l-0.6-5.1l-0.6-4.9c-0.9-7.8,5.7-14.5,13.5-13.7l4.9,0.5
				l5.1,0.5c6.1,0.6,8.8,8.1,4.5,12.5L67.4,66.3z"/>
		</g>
	</g>
</g>
</svg>
