<?xml version="1.0" encoding="utf-8"?>
<!-- Generator: Adobe Illustrator 21.0.0, SVG Export Plug-In . SVG Version: 6.00 Build 0)  -->
<svg version="1.1" id="图层_1" xmlns="http://www.w3.org/2000/svg" xmlns:xlink="http://www.w3.org/1999/xlink" x="0px" y="0px"
	 viewBox="0 0 40 40" style="enable-background:new 0 0 40 40;" xml:space="preserve">
<style type="text/css">
	.st0{fill:#FFCC30;}
	.st1{fill:none;}
	.st2{fill:#FFA300;}
</style>
<g>
	<path class="st0" d="M20,8c-5.5,0-9.9,4.4-9.9,9.9c0,2.7,1.1,5.2,2.9,7l7,7l7-7c1.9-1.9,2.9-4.4,2.9-7C29.9,12.4,25.5,8,20,8z
		 M20,22.4c-1.2,0-2.3-0.5-3.1-1.3s-1.3-1.9-1.3-3.1c0-1.2,0.5-2.3,1.3-3.1c0.8-0.8,1.9-1.3,3.1-1.3c1.2,0,2.3,0.5,3.1,1.3
		c0.8,0.8,1.3,1.9,1.3,3.1c0,1.2-0.5,2.3-1.3,3.1C22.3,21.9,21.2,22.4,20,22.4z"/>
	<path class="st1" d="M20,13.5c-1.2,0-2.3,0.5-3.1,1.3c-0.8,0.8-1.3,1.9-1.3,3.1c0,1.2,0.5,2.3,1.3,3.1c0.8,0.8,1.9,1.3,3.1,1.3
		c1.2,0,2.3-0.5,3.1-1.3c0.5-0.5,0.9-1.2,1.1-1.9H20V13.5z"/>
	<path class="st0" d="M29.8,19.2h-5.6c-0.2,0.7-0.6,1.4-1.1,1.9c-0.8,0.8-1.9,1.3-3.1,1.3c-1.2,0-2.3-0.5-3.1-1.3
		c-0.8-0.8-1.3-1.9-1.3-3.1c0-1.2,0.5-2.3,1.3-3.1c0.8-0.8,1.9-1.3,3.1-1.3V8c-5.4,0-9.8,4.5-9.8,9.9c0,1.7,0.4,3.3,1.1,4.6H20
		l4.7,4.7L27,25C28.6,23.4,29.5,21.3,29.8,19.2z"/>
	<path class="st2" d="M20,13.5c1.2,0,2.3,0.5,3.1,1.3c0.8,0.8,1.3,1.9,1.3,3.1c0,0.4-0.1,0.8-0.2,1.2h5.6c0-0.4,0.1-0.8,0.1-1.2
		c0-5.5-4.4-9.9-9.9-9.9c0,0,0,0,0,0L20,13.5C20,13.5,20,13.5,20,13.5z"/>
	<path class="st2" d="M11.3,22.6c0.5,0.9,1.1,1.7,1.8,2.4l7,7l4.7-4.7L20,22.6H11.3z"/>
</g>
</svg>
