<?xml version="1.0" encoding="utf-8"?>
<!-- Generator: Adobe Illustrator 21.0.0, SVG Export Plug-In . SVG Version: 6.00 Build 0)  -->
<svg version="1.1" id="图层_1" xmlns="http://www.w3.org/2000/svg" xmlns:xlink="http://www.w3.org/1999/xlink" x="0px" y="0px"
	 viewBox="0 0 40 40" style="enable-background:new 0 0 40 40;" xml:space="preserve">
<style type="text/css">
	.st0{fill:#FFCC30;stroke:#FFA829;stroke-width:0.5;stroke-miterlimit:10;}
	.st1{fill:url(#SVGID_1_);}
	.st2{fill:#FFFFFF;stroke:#FF912E;stroke-miterlimit:10;}
</style>
<g>
	<circle class="st0" cx="20" cy="20" r="12"/>
	<linearGradient id="SVGID_1_" gradientUnits="userSpaceOnUse" x1="20" y1="30.1053" x2="20" y2="9.8947">
		<stop  offset="0.1129" style="stop-color:#FFD500"/>
		<stop  offset="0.414" style="stop-color:#FFA300"/>
	</linearGradient>
	<circle class="st1" cx="20" cy="20" r="10.1"/>
	<g>
		<path class="st2" d="M16.2,19c0-1.2-0.7-2.2-1.7-2.2s-1.7,1-1.7,2.2c0,1.2,0.7,2.2,1.7,2.2S16.2,20.2,16.2,19z"/>
		<path class="st2" d="M17.9,18.3c0.9,0,1.7-1,1.7-2.2c0-1.2-0.7-2.2-1.7-2.2c-0.9,0-1.7,1-1.7,2.2C16.2,17.3,16.9,18.3,17.9,18.3z"
			/>
		<path class="st2" d="M22.1,18.3c0.9,0,1.7-1,1.7-2.2c0-1.2-0.7-2.2-1.7-2.2s-1.7,1-1.7,2.2C20.4,17.3,21.2,18.3,22.1,18.3z"/>
		<path class="st2" d="M25.5,16.8c-1,0-1.7,1-1.7,2.2c0,1.2,0.7,2.2,1.7,2.2s1.7-1,1.7-2.2C27.2,17.7,26.5,16.8,25.5,16.8z"/>
		<path class="st2" d="M20,18.7c-1.7,0-3.3,1.3-4.2,3.6c-0.5,1.3-0.5,2.4,0,3.2c0.3,0.4,0.7,0.7,1.2,0.7c0.7,0,1.2-0.2,1.7-0.5
			c0.4-0.2,0.8-0.4,1.3-0.4c0.5,0,0.9,0.2,1.3,0.4c0.4,0.2,0.9,0.5,1.7,0.5c0.5,0,0.9-0.3,1.2-0.7c0.5-0.8,0.5-1.9,0-3.2
			C23.3,20,21.7,18.7,20,18.7z"/>
	</g>
</g>
</svg>
