<?xml version="1.0" encoding="utf-8"?>
<!-- Generator: Adobe Illustrator 21.0.0, SVG Export Plug-In . SVG Version: 6.00 Build 0)  -->
<svg version="1.1" id="图层_1" xmlns="http://www.w3.org/2000/svg" xmlns:xlink="http://www.w3.org/1999/xlink" x="0px" y="0px"
	 viewBox="0 0 40 40" style="enable-background:new 0 0 40 40;" xml:space="preserve">
<style type="text/css">
	.st0{fill:url(#SVGID_1_);}
	.st1{fill:#FFCC30;}
	.st2{fill:#FFFFFF;}
	.st3{fill:#FFA300;}
</style>
<g>
	<linearGradient id="SVGID_1_" gradientUnits="userSpaceOnUse" x1="28.2853" y1="23.9892" x2="33.3042" y2="15.2963">
		<stop  offset="0.1129" style="stop-color:#FFD500"/>
		<stop  offset="0.6774" style="stop-color:#FFA300"/>
	</linearGradient>
	<path class="st0" d="M31.1,14.4l-3.9,3.8v3.6l3.9,3.8c0.4,0.3,0.9,0.1,0.9-0.4V14.8C32,14.4,31.3,14.1,31.1,14.4z"/>
	<path class="st1" d="M27.1,17.9v-4.6c0-0.8-0.6-1.4-1.4-1.4H9.4c-0.9,0-1.4,0.6-1.4,1.4v13.4c0,0.8,0.6,1.4,1.4,1.4h16.4
		c0.8,0,1.4-0.5,1.4-1.4v-4.6l0,0L27.1,17.9L27.1,17.9z"/>
	<path class="st2" d="M13.5,25.3V14.7c0-0.3,0.3-0.4,0.5-0.3l9.1,5.3c0.2,0.1,0.2,0.4,0,0.6L14,25.6C13.7,25.7,13.5,25.6,13.5,25.3z
		"/>
	<path class="st3" d="M13.5,14.7c0-0.3,0.3-0.4,0.5-0.3l5.7,3.3v-5.8H9.4c-0.9,0-1.4,0.6-1.4,1.4v6.6h5.5V14.7z"/>
</g>
</svg>
