<?xml version="1.0" encoding="utf-8"?>
<!-- Generator: Adobe Illustrator 21.0.0, SVG Export Plug-In . SVG Version: 6.00 Build 0)  -->
<svg version="1.1" id="图层_1" xmlns="http://www.w3.org/2000/svg" xmlns:xlink="http://www.w3.org/1999/xlink" x="0px" y="0px"
	 viewBox="0 0 40 40" style="enable-background:new 0 0 40 40;" xml:space="preserve">
<style type="text/css">
	.st0{fill:#EAEAEA;}
	.st1{fill:#EFBF26;}
</style>
<g>
	<rect class="st0" width="40" height="40"/>
</g>
<path class="st1" d="M27.8,26.6c4.2,0.6,7.6,4.1,8,8.3c0.2,1.6,0,3.4,0,5.1H4.1c0.1-3-0.4-5.9,1.2-8.8c1.5-2.6,4-4.3,6.9-4.8
	c0.2,0,0.5,0,0.8,0.2c4.2,2.9,9.8,2.9,14.1,0C27.3,26.7,27.5,26.6,27.8,26.6L27.8,26.6z M20,25.6c-4.9-0.1-8.7-4.1-8.5-9
	c0.1-4.9,4.1-8.7,9-8.5c4.8,0.1,8.5,4,8.5,8.8C28.8,21.8,24.8,25.7,20,25.6L20,25.6z"/>
</svg>
