<?xml version="1.0" encoding="utf-8"?>
<!-- Generator: Adobe Illustrator 21.0.0, SVG Export Plug-In . SVG Version: 6.00 Build 0)  -->
<svg version="1.1" id="图层_1" xmlns="http://www.w3.org/2000/svg" xmlns:xlink="http://www.w3.org/1999/xlink" x="0px" y="0px"
	 viewBox="0 0 40 40" style="enable-background:new 0 0 40 40;" xml:space="preserve">
<style type="text/css">
	.st0{fill:#FFCC30;}
	.st1{fill:#FFA300;}
	.st2{fill:#FFFFFF;stroke:#FFA300;stroke-width:0.5;stroke-miterlimit:10;}
</style>
<g>
	<path class="st0" d="M26,32H14c-3.3,0-6-2.7-6-6V14c0-3.3,2.7-6,6-6h12c3.3,0,6,2.7,6,6v12C32,29.3,29.3,32,26,32z"/>
	<path class="st1" d="M19.2,11.1V8H14c-3.3,0-6,2.7-6,6v3h5.3C16.5,17,19.2,14.4,19.2,11.1z"/>
	<g>
		<g>
			<path class="st2" d="M20,28.5c0.5,0,0.9-0.2,1.2-0.5c0.7-0.6,0.7-1.7,0-2.4c0,0,0,0,0,0c-0.7-0.7-1.8-0.6-2.4,0
				c-0.3,0.3-0.5,0.7-0.5,1.2c0,0.5,0.2,0.9,0.5,1.2C19.1,28.3,19.5,28.5,20,28.5z"/>
			<path class="st2" d="M22.2,20.1c0.6-0.5,1.2-1.1,1.8-1.7c0.3-0.3,0.6-0.7,0.8-1.2c0.2-0.5,0.4-1,0.4-1.6c0-0.7-0.2-1.5-0.6-2.1
				c-0.4-0.7-1.1-1.2-1.8-1.5c-0.8-0.4-1.7-0.6-2.7-0.6c-1,0-2,0.2-2.8,0.7c-0.8,0.4-1.4,1-1.8,1.7c-0.4,0.6-0.6,1.3-0.6,2
				c0,0.3,0.2,0.7,0.4,0.9c0.3,0.3,0.6,0.4,1,0.4c0.7,0,1.2-0.5,1.3-1.2c0.2-0.6,0.5-1.2,0.9-1.7c0.5-0.4,1.1-0.6,1.7-0.6
				c0.6,0,1.2,0.2,1.6,0.6c0.4,0.4,0.6,0.9,0.6,1.4c0,0.3-0.1,0.6-0.2,0.8c-0.1,0.2-0.3,0.5-0.5,0.7c-0.2,0.2-0.5,0.5-1,0.9
				c-0.4,0.4-0.8,0.8-1.2,1.2c-0.3,0.3-0.6,0.7-0.7,1.1c-0.2,0.5-0.3,1-0.3,1.5c0,0.4,0.1,0.8,0.4,1.1c0.2,0.2,0.6,0.4,0.9,0.4
				c0.6,0,1.2-0.4,1.2-1.1c0,0,0,0,0,0c0.1-0.3,0.1-0.6,0.2-0.7c0-0.1,0.1-0.3,0.2-0.4c0.1-0.2,0.2-0.3,0.3-0.5
				C21.8,20.5,22,20.3,22.2,20.1L22.2,20.1z"/>
		</g>
	</g>
	<path class="st1" d="M32,26v-3h-2.8c-3.3,0-6,2.7-6,6v3H26C29.3,32,32,29.3,32,26z"/>
</g>
</svg>
