<?xml version="1.0" encoding="utf-8"?>
<!-- Generator: Adobe Illustrator 21.0.0, SVG Export Plug-In . SVG Version: 6.00 Build 0)  -->
<svg version="1.1" id="图层_1" xmlns="http://www.w3.org/2000/svg" xmlns:xlink="http://www.w3.org/1999/xlink" x="0px" y="0px"
	 viewBox="0 0 200 123.4" style="enable-background:new 0 0 200 123.4;" xml:space="preserve">
<style type="text/css">
	.st0{fill:#9071F6;}
	.st1{fill:#FFFFFF;}
	.st2{font-family:'PingFang-SC-Bold';}
	.st3{font-size:18.75px;}
	.st4{font-family:'PingFang-SC-Regular';}
	.st5{font-size:14.0625px;}
	.st6{fill:#FFCA27;}
	.st7{fill:#FFFF9C;}
	.st8{fill:#FA9800;}
	.st9{fill:#FFFFB5;}
</style>
<g>
	<path class="st0" d="M200,123.4H0V0h200V123.4z"/>
	<text transform="matrix(1 0 0 1 10.9383 32.8135)" class="st1 st2 st3">完成注册</text>
	<text transform="matrix(1 0 0 1 10.9383 53.127)" class="st1 st4 st5">完成注册流程</text>
	<path class="st6" d="M91.1,110H22.9c-6.6,0-12-5.4-12-12V71h80.2c6.6,0,12,5.4,12,12v15C103.1,104.6,97.7,110,91.1,110z"/>
	<g>
		
			<image style="overflow:visible;opacity:0.8;enable-background:new    ;" width="27" height="27" xlink:href="1E74A823.png"  transform="matrix(1 0 0 1 17 77.719)">
		</image>
		<g>
			<g>
				<g>
					<circle class="st7" cx="30.5" cy="90.5" r="10.2"/>
				</g>
				<g>
					<circle class="st8" cx="30.5" cy="90.5" r="8.5"/>
				</g>
				<g>
					<g>
						<path class="st9" d="M27.3,89.7c0-1-0.6-1.9-1.4-1.9s-1.4,0.8-1.4,1.9s0.6,1.9,1.4,1.9S27.3,90.7,27.3,89.7z"/>
						<path class="st9" d="M28.7,89.1c0.8,0,1.4-0.8,1.4-1.9s-0.6-1.9-1.4-1.9s-1.4,0.8-1.4,1.9C27.3,88.2,27.8,89.1,28.7,89.1z"/>
						<path class="st9" d="M32.2,89.1c0.8,0,1.4-0.8,1.4-1.9s-0.6-1.9-1.4-1.9c-0.8,0-1.4,0.8-1.4,1.9S31.5,89.1,32.2,89.1z"/>
						<path class="st9" d="M35.1,87.8c-0.8,0-1.4,0.8-1.4,1.9s0.6,1.9,1.4,1.9c0.8,0,1.4-0.8,1.4-1.9C36.6,88.6,36,87.8,35.1,87.8z"
							/>
						<path class="st9" d="M30.5,89.4c-1.4,0-2.8,1.1-3.6,3c-0.4,1.1-0.4,2,0,2.7c0.3,0.3,0.6,0.6,1,0.6c0.6,0,1-0.2,1.4-0.4
							c0.3-0.2,0.7-0.3,1.1-0.3s0.8,0.2,1.1,0.3s0.8,0.4,1.4,0.4c0.4,0,0.8-0.3,1-0.6c0.4-0.7,0.4-1.6,0-2.7
							C33.3,90.5,31.9,89.4,30.5,89.4z"/>
					</g>
				</g>
			</g>
		</g>
	</g>
	<g>
		
			<image style="overflow:visible;opacity:0.8;enable-background:new    ;" width="31" height="23" xlink:href="1E74A821.png"  transform="matrix(1 0 0 1 55 79.719)">
		</image>
		<g>
			<g>
				<path class="st1" d="M59.4,82.8h9.4V85h-7.4L61,89.2h0.1c0.5-0.5,1-0.8,1.6-1s1.2-0.3,1.9-0.3c1.5,0,2.6,0.5,3.6,1.4
					c0.9,1,1.4,2.3,1.4,3.9s-0.6,2.9-1.8,3.9c-1.1,0.9-2.5,1.4-4,1.4c-1.4,0-2.6-0.4-3.6-1.1c-1.1-0.8-1.7-2-1.8-3.4h2.5
					c0.1,0.9,0.4,1.5,1,1.9c0.5,0.4,1.2,0.5,2,0.5c0.9,0,1.7-0.3,2.3-0.8c0.6-0.6,0.9-1.3,0.9-2.3s-0.3-1.8-0.8-2.4S65,90,64,90
					c-0.7,0-1.3,0.1-1.7,0.3c-0.5,0.3-1,0.7-1.3,1.2h-2.4L59.4,82.8z"/>
				<path class="st1" d="M81.2,84.7c1,1.4,1.4,3.4,1.4,5.8s-0.5,4.4-1.4,5.8c-1,1.5-2.4,2.3-4.2,2.3c-1.8,0-3.2-0.8-4.2-2.3
					c-1-1.4-1.4-3.4-1.4-5.8s0.5-4.4,1.4-5.8c1-1.5,2.4-2.3,4.2-2.3C78.7,82.5,80.1,83.2,81.2,84.7z M74.3,86.7
					c-0.3,0.9-0.5,2.2-0.5,3.8c0,1.6,0.2,2.9,0.5,3.8c0.5,1.4,1.4,2.1,2.6,2.1s2.1-0.7,2.6-2.1c0.3-1,0.5-2.2,0.5-3.8
					c0-1.6-0.2-2.9-0.5-3.8c-0.5-1.4-1.4-2.1-2.6-2.1C75.7,84.6,74.8,85.3,74.3,86.7z"/>
			</g>
		</g>
	</g>
	<g>
		
			<image style="overflow:visible;opacity:0.8;enable-background:new    ;" width="18" height="18" xlink:href="1E74A827.png"  transform="matrix(1 0 0 1 42 81.719)">
		</image>
		<g>
			<g>
				<path class="st1" d="M50.3,85h2v4.4h4.4v2h-4.4V96h-2v-4.5h-4.5v-2h4.5V85z"/>
			</g>
		</g>
	</g>
	<g>
		
			<image style="overflow:visible;opacity:0.8;enable-background:new    ;" width="15" height="23" xlink:href="1E74A820.png"  transform="matrix(1 0 0 1 86 79.719)">
		</image>
		<g>
			<g>
				<path class="st1" d="M89.1,82.5l8,6.7v2.6l-8,6.7v-3.2l5.9-4.8l-5.9-4.8V82.5z"/>
			</g>
		</g>
	</g>
</g>
</svg>
