<?xml version="1.0" encoding="utf-8"?>
<!-- Generator: Adobe Illustrator 21.0.0, SVG Export Plug-In . SVG Version: 6.00 Build 0)  -->
<svg version="1.1" id="图层_1" xmlns="http://www.w3.org/2000/svg" xmlns:xlink="http://www.w3.org/1999/xlink" x="0px" y="0px"
	 viewBox="0 0 62 43" style="enable-background:new 0 0 62 43;" xml:space="preserve">
<style type="text/css">
	.st0{fill:#8766F4;}
	.st1{fill:#5331BE;}
	.st2{fill:#E7E3D5;}
	.st3{fill:#E8805A;}
	.st4{fill:#5C3BC5;}
	.st5{fill:#FF5B1C;}
	.st6{fill:#FE983F;}
	.st7{fill:#FFD124;}
	.st8{fill:#FEB933;}
</style>
<g>
	<path class="st0" d="M26.3,5.4c0.1-2.6,3.2-3.8,4.9-1.8L35.1,8h2.8l-5.8-6.4c-2.4-2.7-6.8-1.1-7,2.5l-0.4,10.7
		c0.3-0.9,0.8-1.8,1.3-2.6L26.3,5.4z"/>
	<path class="st1" d="M34.2,8h0.9l-3.9-4.4c-1.7-1.9-4.9-0.8-4.9,1.8l-0.3,6.8C27.9,9.7,30.8,8,34.2,8z"/>
	<path class="st0" d="M51.5,9c1.8,0,3.5,0.5,4.9,1.3c-1.1-0.8-2.5-1.3-4-1.3H51.5z"/>
	<path class="st0" d="M26.9,12c1.8-1.8,4.3-3,7.1-3h-1.4C30.3,9,28.2,10.2,26.9,12z"/>
	<path class="st0" d="M26,13.6c0.2-0.6,0.5-1.1,0.9-1.6c-0.3,0.3-0.6,0.7-0.9,1L26,13.6z"/>
	<path d="M31.5,24c0.8,0,1.5-0.7,1.5-1.5v-3c0-0.8-0.7-1.5-1.5-1.5S30,18.7,30,19.5v3C30,23.3,30.7,24,31.5,24z"/>
	<path d="M53.5,24c0.8,0,1.5-0.7,1.5-1.5v-3c0-0.8-0.7-1.5-1.5-1.5S52,18.7,52,19.5v3C52,23.3,52.7,24,53.5,24z"/>
	<path class="st2" d="M46,21.8h-1.2c-0.1,0.7-0.7,1.3-1.5,1.3H42h-0.2h-0.5c-0.7,0-1.4-0.5-1.5-1.3h-1.2c-2.2,0-4,1.8-4,4v0.5
		c0,2.2,1.8,4,4,4h1.6v-1.8c0-0.9,0.6-1.6,1.4-1.9c0.1,0,0.2-0.1,0.3-0.1c0.1,0,0.2,0,0.3,0c1.1,0,2,0.9,2,2v1.8H46c2.2,0,4-1.8,4-4
		v-0.5C50,23.5,48.2,21.8,46,21.8z"/>
	<path class="st3" d="M42.3,26.5c-0.1,0-0.2,0-0.3,0c-0.1,0-0.2,0-0.3,0.1c-0.8,0.3-1.4,1-1.4,1.9v1.8v0.3c0,0.8,0.5,1.5,1.2,1.8
		c0.2,0.1,0.3,0.1,0.5,0.2c0.1,0,0.2,0,0.3,0c1.1,0,2-0.9,2-2v-0.3v-1.8C44.3,27.4,43.4,26.5,42.3,26.5z"/>
	<path d="M43.3,20H42h0h-0.6c-0.8,0-1.5,0.7-1.5,1.5c0,0.1,0,0.2,0,0.3c0.1,0.7,0.7,1.3,1.5,1.3h0.5H42h1.3c0.7,0,1.4-0.5,1.5-1.3
		c0-0.1,0-0.2,0-0.3C44.8,20.7,44.2,20,43.3,20z"/>
	<path class="st1" d="M58.9,11l-0.2-5.6c-0.1-2.6-3.2-3.8-4.9-1.8L49.9,8h2.3C54.9,8,57.3,9.2,58.9,11z"/>
	<path class="st0" d="M60.8,14.2L60.4,4.1c-0.1-3.6-4.6-5.2-7-2.5L47.6,8h-9.7h-2.8h-0.9c-3.4,0-6.3,1.7-8.1,4.2
		c-0.6,0.8-1,1.6-1.3,2.6c-0.3,1-0.5,2.1-0.5,3.2v20.3c0.7,0.7,1.4,1.4,2.1,2.1c0.8,0.9,1.6,1.7,2.3,2.6h5.9c-5-6-7.6-11.5-6-12.9
		c1.8-1.7,8.5,2.5,14.9,9.4c1.1,1.2,2.1,2.4,3.1,3.6h14.8V17C61.2,16,61,15.1,60.8,14.2z M33,22.5c0,0.8-0.7,1.5-1.5,1.5
		S30,23.3,30,22.5v-3c0-0.8,0.7-1.5,1.5-1.5s1.5,0.7,1.5,1.5V22.5z M26.9,12c-0.4,0.5-0.7,1-0.9,1.6l0-0.6
		C26.3,12.7,26.6,12.3,26.9,12c1.3-1.8,3.4-3,5.7-3H34C31.2,9,28.7,10.2,26.9,12z M50,26.3c0,2.2-1.8,4-4,4h-1.7v0.3
		c0,1.1-0.9,2-2,2c-0.1,0-0.2,0-0.3,0c-0.2,0-0.4-0.1-0.5-0.2c-0.7-0.3-1.2-1-1.2-1.8v-0.3h-1.6c-2.2,0-4-1.8-4-4v-0.5
		c0-2.2,1.8-4,4-4h1.2c0-0.1,0-0.2,0-0.3c0-0.8,0.7-1.5,1.5-1.5H42h0h1.3c0.8,0,1.5,0.7,1.5,1.5c0,0.1,0,0.2,0,0.3H46
		c2.2,0,4,1.8,4,4V26.3z M55,22.5c0,0.8-0.7,1.5-1.5,1.5S52,23.3,52,22.5v-3c0-0.8,0.7-1.5,1.5-1.5s1.5,0.7,1.5,1.5V22.5z M51.5,9
		h0.9c1.5,0,2.9,0.5,4,1.3C55,9.5,53.3,9,51.5,9z M52.2,8h-2.3l3.9-4.4c1.7-1.9,4.9-0.8,4.9,1.8l0.2,5.6C57.3,9.2,54.9,8,52.2,8z"/>
	<path class="st4" d="M43.3,39.4c-6.4-6.9-13.1-11.1-14.9-9.4c-1.6,1.5,1.1,7,6,12.9h11.9C45.4,41.8,44.4,40.6,43.3,39.4z"/>
	<path class="st4" d="M24.2,38.3c-5.7-5.6-11.2-8.7-12.8-7.2c-1.5,1.4,0.8,6.4,5.2,11.9h7.6V38.3z"/>
	<path class="st4" d="M28.6,43c-0.7-0.8-1.5-1.7-2.3-2.6c-0.7-0.7-1.4-1.5-2.1-2.1V43H28.6z"/>
</g>
<g>
	<path class="st5" d="M16.1,28h-14c-1.1,0-2-0.9-2-2V5c0-1.1,0.9-2,2-2h14c1.1,0,2,0.9,2,2v21C18.1,27.1,17.2,28,16.1,28z"/>
	<path class="st6" d="M2,3h14.2c1.3,0,2.1,1,1.3,1.8l-7.1,7.7c-0.6,0.7-2,0.7-2.7,0L0.7,4.8C-0.1,4,0.7,3,2,3z"/>
	<g>
		<path class="st7" d="M4.9,11.8c0,2.3,1.9,4.2,4.2,4.2s4.2-1.9,4.2-4.2c0,0,0,0,0,0c0-2.3-1.9-4.2-4.2-4.2S4.9,9.5,4.9,11.8z"/>
		<path class="st8" d="M10.9,12.1H9.4v-0.8h1.5c0.2,0,0.3-0.1,0.3-0.3c0-0.2-0.1-0.3-0.3-0.3h-1l0.5-0.5c0.1-0.1,0.1-0.3,0-0.5
			c-0.1-0.1-0.3-0.1-0.5,0l-0.9,0.9L8.2,9.6c-0.1-0.1-0.3-0.1-0.5,0c-0.1,0.1-0.1,0.3,0,0.5l0.5,0.5h-1c-0.2,0-0.3,0.1-0.3,0.3
			c0,0.2,0.1,0.3,0.3,0.3h1.5v0.8H7.3c-0.2,0-0.3,0.1-0.3,0.3c0,0.2,0.1,0.3,0.3,0.3h1.5v1.1c0,0.2,0.1,0.3,0.3,0.3h0.1
			c0.2,0,0.3-0.1,0.3-0.3v-1.1h1.5c0.2,0,0.3-0.1,0.3-0.3C11.3,12.2,11.1,12.1,10.9,12.1z"/>
	</g>
</g>
</svg>
