<?xml version="1.0" encoding="utf-8"?>
<!-- Generator: Adobe Illustrator 21.0.0, SVG Export Plug-In . SVG Version: 6.00 Build 0)  -->
<svg version="1.1" id="图层_1" xmlns="http://www.w3.org/2000/svg" xmlns:xlink="http://www.w3.org/1999/xlink" x="0px" y="0px"
	 viewBox="0 0 40 40" style="enable-background:new 0 0 40 40;" xml:space="preserve">
<style type="text/css">
	.st0{fill:#FFFFFF;}
	.st1{fill:#EFBF26;}
</style>
<g>
	<rect class="st0" width="40" height="40"/>
</g>
<path class="st1" d="M27.3,27.5c3.9,0.6,7,3.8,7.4,7.7c0.2,1.5,0,3.1,0,4.7H5.3c0.1-2.8-0.4-5.5,1.1-8.1c1.4-2.4,3.7-4,6.4-4.4
	c0.2,0,0.5,0,0.7,0.2c3.9,2.7,9.1,2.7,13,0C26.8,27.6,27,27.5,27.3,27.5L27.3,27.5z M20,26.6c-4.5-0.1-8-3.8-7.9-8.3s3.8-8,8.3-7.9
	c4.4,0.1,7.9,3.7,7.9,8.1C28.2,23.1,24.5,26.7,20,26.6C20,26.6,20,26.6,20,26.6z"/>
</svg>
